<?xml version="1.0" standalone="no"?><!DOCTYPE svg PUBLIC "-//W3C//DTD SVG 1.1//EN" "http://www.w3.org/Graphics/SVG/1.1/DTD/svg11.dtd"><svg t="1770824501444" class="icon" viewBox="0 0 1024 1024" version="1.1" xmlns="http://www.w3.org/2000/svg" p-id="5508" xmlns:xlink="http://www.w3.org/1999/xlink" width="200" height="200"><path d="M465.4592 46.5408v186.1888a46.5408 46.5408 0 1 0 93.0816 0V46.5408a46.5408 46.5408 0 1 0-93.0816 0z m0 744.7296v186.1888a46.5408 46.5408 0 0 0 93.0816 0V791.2704a46.5408 46.5408 0 1 0-93.0816 0zM150.016 215.8336l131.712 131.7248a46.5408 46.5408 0 0 0 65.8304-65.8176L215.8464 150.016a46.5408 46.5408 0 0 0-65.8304 65.8176zM676.4416 742.272l131.712 131.7248a46.5408 46.5408 0 0 0 65.8304-65.8176L742.272 676.4416a46.5408 46.5408 0 0 0-65.8304 65.8176zM46.5536 558.5408h186.176a46.5408 46.5408 0 1 0 0-93.0816H46.5408a46.5408 46.5408 0 1 0 0 93.0816z m744.7168 0h186.1888a46.5408 46.5408 0 0 0 0-93.0816H791.2704a46.5408 46.5408 0 1 0 0 93.0816zM215.8336 873.984l131.7248-131.712a46.5408 46.5408 0 0 0-65.8176-65.8304L150.016 808.1536a46.5408 46.5408 0 0 0 65.8176 65.8304zM742.272 347.5584l131.7248-131.712a46.5408 46.5408 0 0 0-65.8176-65.8304L676.4416 281.728a46.5408 46.5408 0 0 0 65.8176 65.8304z" fill="#000000" p-id="5509"></path></svg>